<?xml version="1.0" encoding="iso-8859-1"?>
<!-- Uploaded to: SVG Repo, www.svgrepo.com, Generator: SVG Repo Mixer Tools -->
<!DOCTYPE svg PUBLIC "-//W3C//DTD SVG 1.1//EN" "http://www.w3.org/Graphics/SVG/1.1/DTD/svg11.dtd">
<svg fill="#000000" height="800px" width="800px" version="1.1" id="Capa_1" xmlns="http://www.w3.org/2000/svg" xmlns:xlink="http://www.w3.org/1999/xlink" 
	 viewBox="0 0 343.215 343.215" xml:space="preserve">
<path d="M147.165,55.649c8.031-12.421,8.288-33.432,0.52-42.417c-2.89-3.343-2.522-8.395,0.82-11.284
	c3.343-2.89,8.395-2.522,11.284,0.819c13.695,15.843,11.419,45.163,0.812,61.569c-8.33,12.883-8.724,33.715-0.812,42.865
	c2.89,3.342,2.523,8.395-0.819,11.284c-1.512,1.308-3.375,1.948-5.229,1.948c-2.243,0-4.473-0.938-6.055-2.768
	C133.783,101.589,136.192,72.619,147.165,55.649z M183.438,117.668c1.582,1.829,3.812,2.767,6.055,2.767
	c1.854,0,3.717-0.641,5.229-1.949c3.342-2.89,3.708-7.942,0.817-11.284c-7.914-9.15-7.52-29.981,0.812-42.864
	c10.608-16.407,12.885-45.728-0.811-61.569c-2.889-3.342-7.94-3.709-11.284-0.819c-3.342,2.89-3.709,7.941-0.819,11.284
	c7.768,8.985,7.51,29.995-0.521,42.416C171.941,72.619,169.532,101.589,183.438,117.668z M275.198,170.564v52.11
	c0,4.418-3.582,8-8,8h-28.787v2.914c0,36.837-29.969,66.807-66.806,66.807c-36.836,0-66.805-29.97-66.805-66.807v-80.634
	c0-4.418,3.582-8,8-8h117.611c4.418,0,8,3.582,8,8v9.609h28.787C271.616,162.564,275.198,166.146,275.198,170.564z M222.411,160.954
	H120.8v72.634c0,28.015,22.791,50.807,50.805,50.807c28.015,0,50.806-22.792,50.806-50.807V160.954z M259.198,178.564h-20.787v36.11
	h20.787V178.564z M267.198,327.215H76.017c-4.418,0-8,3.582-8,8s3.582,8,8,8h191.182c4.418,0,8-3.582,8-8
	S271.616,327.215,267.198,327.215z"/>
</svg>